<svg width="183" height="50" viewBox="0 0 183 50" fill="none" xmlns="http://www.w3.org/2000/svg">
<path d="M17.9819 13.5001L11.2409 22.5022H10.47L3.8904 13.4641V28.5516H0V7.81079H4.48202L10.9541 16.7409L17.4261 7.81079H21.8902V28.5696H17.9998V13.5001H17.9819Z" fill="#FD5674"/>
<path d="M37.1115 13.9144H40.5716V28.5338H37.1832L37.004 26.3913C36.1793 28.1017 33.9024 28.9479 32.2889 28.9659C27.9861 29.0019 24.7949 26.3192 24.7949 21.2061C24.7949 16.1649 28.1295 13.5363 32.3785 13.5543C34.3327 13.5543 36.1793 14.4725 37.0219 15.9308L37.1115 13.9144ZM28.3626 21.2061C28.3626 23.9967 30.2809 25.6531 32.6654 25.6531C38.3306 25.6531 38.3306 16.795 32.6654 16.795C30.2809 16.795 28.3626 18.4154 28.3626 21.2061Z" fill="#FD5674"/>
<path d="M46.9365 13.9142L47.2055 15.6066C48.3349 13.8062 49.8409 13.5361 51.311 13.5361C52.817 13.5361 54.2691 14.1303 55.058 14.9225L53.4265 18.0732C52.6915 17.443 52.0102 17.119 50.8269 17.119C48.9445 17.119 47.1875 18.1272 47.1875 20.8278V28.5336H43.584V13.9142H46.9365Z" fill="#FD5674"/>
<path d="M65.9219 17.8031C64.8821 16.8308 63.7168 16.5068 62.3184 16.5068C60.6152 16.5068 59.665 17.0469 59.665 17.9651C59.665 18.9193 60.5256 19.4414 62.3722 19.5675C65.1152 19.7475 68.5932 20.3597 68.5932 24.2486C68.5932 26.8231 66.4956 29.0557 62.3363 29.0557C60.0415 29.0557 57.7288 28.6776 55.6133 26.4451L57.3882 23.8705C58.428 25.0227 60.7766 25.8869 62.408 25.9229C63.7706 25.9589 65.0435 25.2388 65.0435 24.1765C65.0435 23.1683 64.2188 22.7542 62.157 22.6282C59.414 22.4121 56.1332 21.4039 56.1332 18.0911C56.1332 14.7063 59.6112 13.5181 62.2646 13.5181C64.5415 13.5181 66.2446 13.9682 67.9299 15.4445L65.9219 17.8031Z" fill="#FD5674"/>
<path d="M82.4514 13.9144H85.9115V28.5338H82.5231L82.3438 26.3913C81.5191 28.1017 79.2422 28.9479 77.6287 28.9659C73.326 29.0019 70.1348 26.3192 70.1348 21.2061C70.1348 16.1649 73.4694 13.5363 77.7183 13.5543C79.6725 13.5543 81.5191 14.4725 82.3617 15.9308L82.4514 13.9144ZM73.7025 21.2061C73.7025 23.9967 75.6208 25.6531 78.0052 25.6531C83.6705 25.6531 83.6705 16.795 78.0052 16.795C75.6208 16.795 73.7025 18.4154 73.7025 21.2061Z" fill="#FD5674"/>
<path d="M14.988 35.3932H10.3984V34.511H20.5637V35.3932H15.9741V47.2579H14.988V35.3932Z" fill="#A5A5A5"/>
<path d="M24.4531 42.7748C24.4531 39.9122 26.479 38.0938 29.0069 38.0938C31.5347 38.0938 33.5606 39.9122 33.5606 42.7748C33.5606 45.6375 31.5347 47.3839 29.0069 47.3839C26.4969 47.3839 24.4531 45.6375 24.4531 42.7748ZM32.7 42.7748C32.7 40.4343 31.0507 38.9219 29.0069 38.9219C26.981 38.9219 25.3137 40.4343 25.3137 42.7748C25.3137 45.1154 26.9631 46.5197 29.0069 46.5197C31.0507 46.5017 32.7 45.0974 32.7 42.7748Z" fill="#A5A5A5"/>
<path d="M47.9226 47.2579V45.6376C47.2414 46.8798 45.9864 47.384 44.7314 47.402C42.3291 47.402 40.6797 45.9256 40.6797 43.4231V38.2198H41.5761V43.4051C41.5761 45.4395 42.8311 46.5378 44.7673 46.5198C46.6139 46.5018 47.9047 45.0974 47.9047 43.243V38.2379H48.8011V47.2579H47.9226Z" fill="#A5A5A5"/>
<path d="M57.0653 38.2558L57.1011 39.8582C57.6569 38.6339 58.9298 38.1658 60.0772 38.1658C60.7405 38.1478 61.4039 38.3278 61.9955 38.6879L61.6011 39.4081C61.135 39.12 60.5971 38.994 60.0772 38.994C58.4099 39.012 57.1191 40.3623 57.1191 42.0007V47.2579H56.2227V38.2558H57.0653Z" fill="#A5A5A5"/>
<path d="M74.5817 39.8943C73.6674 39.0841 72.7889 38.9401 71.7849 38.9401C70.3865 38.9221 69.0419 39.4442 69.0778 40.5965C69.1136 41.8027 70.6734 42.0368 71.8029 42.2348C73.3985 42.5049 75.6036 42.775 75.514 44.8814C75.4602 46.8619 73.4164 47.402 71.8208 47.402C70.2431 47.402 68.6834 46.8079 67.8945 45.6016L68.5399 45.0255C69.2929 46.1057 70.6196 46.5558 71.8208 46.5558C72.9144 46.5558 74.5638 46.2678 74.6176 44.8454C74.6534 43.5491 73.1654 43.2971 71.6953 43.063C69.9563 42.775 68.2352 42.4509 68.2172 40.6325C68.1993 38.8681 69.9563 38.0939 71.767 38.1119C73.0758 38.1119 74.2232 38.472 75.1016 39.3182L74.5817 39.8943Z" fill="#A5A5A5"/>
<path d="M122.26 48.7008C122.416 48.971 122.536 49.2592 122.743 49.6555H97.6367C101.761 42.1984 105.868 34.7594 109.974 27.3384L117.532 40.163C119.12 42.991 120.69 45.8369 122.26 48.7008Z" fill="#FD5674"/>
<path d="M148.082 40.3788L153.429 49.6375C153.042 49.6375 152.655 49.6375 152.251 49.6375C151.811 49.6375 151.371 49.6375 150.931 49.6375C144.511 49.6375 138.073 49.6375 131.653 49.6555C131.002 49.6555 130.808 49.2779 130.545 48.8465C126.886 42.3923 123.245 35.9202 119.604 29.4661C119.445 29.1964 119.269 28.9267 119.041 28.5492L113.816 20.0276C117.598 13.3577 121.363 6.68785 125.144 0C125.355 0.323606 125.549 0.557321 125.69 0.826992C132.216 12.3869 138.759 23.9468 145.267 35.5067L145.566 36.0461C146.305 37.3585 147.044 38.6529 147.783 39.9653C147.871 40.1271 147.976 40.2709 148.082 40.3788Z" fill="#FFC103"/>
<path d="M182.999 49.5475C182.669 49.6015 182.478 49.6555 182.304 49.6555C175.405 49.6555 168.506 49.6555 161.607 49.6555L154.534 37.8893C151.267 32.0242 148 26.1411 144.733 20.294C144.472 19.8262 144.402 19.4844 144.68 18.9986C148.104 12.9176 151.493 6.81863 154.899 0.719645C155.02 0.503751 155.177 0.287858 155.368 0C164.596 16.5518 173.771 32.9957 182.999 49.5475Z" fill="#02EF9D"/>
</svg>
