<svg width="20" height="20" viewBox="0 0 20 20" fill="none" xmlns="http://www.w3.org/2000/svg">
<path fill-rule="evenodd" clip-rule="evenodd" d="M18.3327 10.0001C18.3327 14.6026 14.6018 18.3334 9.99935 18.3334C5.39685 18.3334 1.66602 14.6026 1.66602 10.0001C1.66602 5.39758 5.39685 1.66675 9.99935 1.66675C14.6018 1.66675 18.3327 5.39758 18.3327 10.0001ZM12.4993 7.50008C12.4993 8.16312 12.236 8.79901 11.7671 9.26785C11.2983 9.73669 10.6624 10.0001 9.99935 10.0001C9.33631 10.0001 8.70042 9.73669 8.23158 9.26785C7.76274 8.79901 7.49935 8.16312 7.49935 7.50008C7.49935 6.83704 7.76274 6.20116 8.23158 5.73231C8.70042 5.26347 9.33631 5.00008 9.99935 5.00008C10.6624 5.00008 11.2983 5.26347 11.7671 5.73231C12.236 6.20116 12.4993 6.83704 12.4993 7.50008ZM9.99935 17.0834C11.4296 17.0857 12.8267 16.6529 14.0052 15.8426C14.5085 15.4967 14.7235 14.8384 14.4302 14.3026C13.8243 13.1917 12.5743 12.5001 9.99935 12.5001C7.42435 12.5001 6.17435 13.1917 5.56768 14.3026C5.27518 14.8384 5.49018 15.4967 5.99352 15.8426C7.17202 16.6529 8.56912 17.0857 9.99935 17.0834Z" fill="#FD5674"/>
</svg>
