<svg width="16" height="16" viewBox="0 0 16 16" fill="none" xmlns="http://www.w3.org/2000/svg">
<path fill-rule="evenodd" clip-rule="evenodd" d="M13.8327 4.66663C13.8327 4.79923 13.78 4.92641 13.6862 5.02018C13.5925 5.11395 13.4653 5.16663 13.3327 5.16663H2.66602C2.53341 5.16663 2.40623 5.11395 2.31246 5.02018C2.21869 4.92641 2.16602 4.79923 2.16602 4.66663C2.16602 4.53402 2.21869 4.40684 2.31246 4.31307C2.40623 4.2193 2.53341 4.16663 2.66602 4.16663H13.3327C13.4653 4.16663 13.5925 4.2193 13.6862 4.31307C13.78 4.40684 13.8327 4.53402 13.8327 4.66663ZM13.8327 7.99996C13.8327 8.13257 13.78 8.25974 13.6862 8.35351C13.5925 8.44728 13.4653 8.49996 13.3327 8.49996H2.66602C2.53341 8.49996 2.40623 8.44728 2.31246 8.35351C2.21869 8.25974 2.16602 8.13257 2.16602 7.99996C2.16602 7.86735 2.21869 7.74017 2.31246 7.64641C2.40623 7.55264 2.53341 7.49996 2.66602 7.49996H13.3327C13.4653 7.49996 13.5925 7.55264 13.6862 7.64641C13.78 7.74017 13.8327 7.86735 13.8327 7.99996ZM13.8327 11.3333C13.8327 11.4659 13.78 11.5931 13.6862 11.6868C13.5925 11.7806 13.4653 11.8333 13.3327 11.8333H2.66602C2.53341 11.8333 2.40623 11.7806 2.31246 11.6868C2.21869 11.5931 2.16602 11.4659 2.16602 11.3333C2.16602 11.2007 2.21869 11.0735 2.31246 10.9797C2.40623 10.886 2.53341 10.8333 2.66602 10.8333H13.3327C13.4653 10.8333 13.5925 10.886 13.6862 10.9797C13.78 11.0735 13.8327 11.2007 13.8327 11.3333Z" fill="#929292"/>
</svg>
